<svg version="1" xmlns="http://www.w3.org/2000/svg" width="682.667" height="682.667" viewBox="0 0 512.000000 512.000000"><path d="M212.4 153.9c-1.7 1-4.5 3.6-6.3 5.7-2.8 3.3-3.2 4.5-2.7 7.8.6 5.3 3.5 8.8 8.4 10.4 3.8 1.3 4.4 1.2 7.1-.8 4.5-3.1 7-7.3 7.7-12.5.6-3.9.4-4.9-1.7-7.1-2.3-2.5-7-5.4-8.6-5.4-.4 0-2.2.9-3.9 1.9zM156.8 159.8c-6.2 4.6-6.3 4.9-8.3 12.6-1.8 6.9-2.4 8-5 9.1-3.1 1.2-43.5 41.9-58.5 58.8l-8.5 9.5-5.8.1c-4.8.1-6.6.6-10.3 3.1-6.5 4.6-5.8 10 1.3 10 1.8 0 3.3.2 3.3.5s-2.8 4.2-6.3 8.7C46.8 287.8 40 297.8 40 299.8c0 3.1 3.5 5.5 6.7 4.8 6.9-1.6 8.4-2.9 16-14 4.2-6.1 10.4-14.7 13.9-19.1l6.2-8.1 13.6-1.2c12.3-1.1 32.6-4.2 38.3-5.8 2.1-.6 2.1-.5 2.1 13.2-.1 13 0 13.8 2.1 15.5 2.5 2.1 7.1 1.7 14.1-1.2l4.5-1.9.1-21.3c0-13.4.7-26.7 1.8-36.2 2.4-21 8.3-54.9 11.2-64.7.3-1.2-.5-2.2-2.5-3.2-1.7-.9-3.4-1.6-4-1.6-.5 0-3.8 2.1-7.3 4.8zm-13.2 40.4c-.3 1.8-1.7 13.2-3.1 25.3-1.4 12-3 22.2-3.6 22.6-1.1.6-42.9 2.2-43.5 1.6-1.3-1.3 47.3-52.7 49.8-52.7.6 0 .8 1.3.4 3.2zM455.9 193.1c-3 1.6-9.5 6-14.4 9.7-9.1 6.7-32.9 29.6-40.3 38.7-2.3 2.7-4.4 4.7-4.7 4.4-.3-.4.1-3.5.9-7 1-4.5 1.3-8.7.8-13.9-.7-7.4-.7-7.5-3.7-7.8-4.8-.6-9.8 1.5-13.8 5.6-3.5 3.6-3.7 4.1-2.6 6.8.6 1.6 1.2 6.5 1.2 10.9 0 9.3-2.9 19.2-12 40.8-4.6 11.1-5.2 13.2-4 14.4 2.4 2.4 8 2.7 12.9.5 4.1-1.8 5-2.8 10.1-12.6 9.4-17.7 19.3-31.1 35.7-48 9.8-10.2 25.6-24 29.5-25.8 1.8-.8 3-.5 6.2 1.6l4 2.7 4.9-1.8c5.6-2.1 8.4-6.2 8.4-12.4 0-3.3-.4-3.8-4.7-6.1-7.4-4-8.3-4-14.4-.7zM260.2 206c-1.3.6-4.2 2.3-6.6 3.9l-4.3 3-3.9-1.9c-2.1-1.1-4.5-2-5.4-2-2.1 0-13.5 9.6-19.1 16.1-12.7 14.9-20.7 28.7-24 41.7-3.3 13.1-2.1 21.2 4.1 27.4 3.5 3.5 4.2 3.8 9.3 3.8 10.8 0 21.8-6.1 34.4-19.1 7.9-8.2 11.9-13.4 17.6-23.4 11.6-20.2 14-43.1 5.2-48.9-2.7-1.8-4-1.9-7.3-.6zM249 217.6c7.1 4.3 8.2 14.2 3.2 28.8-5.1 14.7-16.7 30.8-24.7 34.1-4.2 1.8-9.2 1-11-1.9-5.2-8.1-.4-27.9 10.5-43.4 4-5.7 17.2-19.2 18.7-19.2.3 0 1.7.7 3.3 1.6z"/><path d="M197 207.7c-.8.3-4 1.6-7.1 3l-5.6 2.5-.6 5.2c-.6 6-13.5 47.6-20.9 67.5-9.1 24.4-19.8 46.2-31.1 63.1-5.9 8.7-17.5 20.6-23.5 24-2.3 1.3-4.2 2.7-4.2 3.1 0 1.4 5.2 4.9 7.2 4.9 5.5 0 19.8-10.2 28.4-20.2 16.4-19.1 28.9-45 51.2-106.3 9.3-25.5 13.7-36.7 15.4-39.5 1.1-1.7.9-2.3-1.2-4.4-2.7-2.6-5.7-3.7-8-2.9zM354 210.9c-7.7 2.4-10.7 5-19.5 17.2-15.6 21.6-31.9 38.9-41.3 43.8-6.2 3.3-6.8-6.8-1.3-21.8 1.7-4.6 5.7-13.4 9.1-19.8 3.3-6.3 6-12 6-12.7 0-.7-.9-2.1-2-3.1-1.9-1.8-2.3-1.8-7.3-.2-2.8.9-5.7 2-6.3 2.5-3.5 2.3-18.1 36.2-22 51.1-3.8 14.5-3 22.6 2.3 25 3.6 1.6 5.2 1.4 11.8-1.8 9.7-4.6 18.1-11.4 34.3-27.8 8.4-8.6 15.5-15.3 15.8-15.1.2.3-.7 4-2.1 8.3-5.7 17.5-6.8 31.2-3 35.5 1.1 1.2 3.1 2 5.1 2 4.1 0 18.9-7.4 27.7-14 5.5-4.1 6.7-5.5 6.7-7.7 0-1.6-.5-3.5-1-4.3-.8-1.3-1.2-1.3-3.2-.1-1.3.8-4.4 2.8-7 4.4-2.5 1.6-6.1 3-8 3-3.1.2-3.3 0-3.6-3.6-.6-7.7 7-32.1 15-48.2l4-7.9-3.1-2.8c-3.4-3-3.4-3-7.1-1.9zM297 314c-45 4.6-94.3 14.8-110.6 23-4.5 2.3-9.4 5.4-10.9 7-2.5 2.6-2.6 3-1 3.6 1 .4 14.9-2.6 32.4-6.9 62.2-15.5 97.6-20.4 140-19.4 29.6.7 47 3.9 61.1 11.2 15.2 8 24.1 8.8 12.7 1.2-12.8-8.4-28.7-14.3-48.6-17.9-9.6-1.7-16.5-2.1-39.1-2.4-15.1-.1-31.3.2-36 .6z"/></svg>